# xmcd CD database file
#
# Track frame offsets:
#	150
#	16125
#	37271
#	55672
#	74738
#	88651
#	102404
#	124236
#	141461
#	153648
#	175152
#	192531
#	209741
#	227754
#	250665
#	267848
#	284994
#	300844
#	319209
#	335366
#
# Disc length: 4787 seconds
#
# Revision: 2
# Processed by: cddbd v1.5.2PL0 Copyright (c) Steve Scherf et al.
# Submitted via: CDex 1.51
#
DISCID=3912b114
DTITLE=Various Artist - ZM-PP-12
DYEAR=1900
DGENRE=Blues
TTITLE0=Wanted The - Lightning
TTITLE1=Lady Gaga - Marry The Night
TTITLE2=Kelly Clarkson - Mr Know It All
TTITLE3=Dappy - No Regrets
TTITLE4=Rebecca Ferguson - Nothing's Real But Love
TTITLE5=Amy Winehouse - Our Day Will Come
TTITLE6=Coldplay - Paradise
TTITLE7=Matt Cardle - Run For Your Life
TTITLE8=Bruno Mars - Runaway Baby
TTITLE9=Florence and The Machine - Shake It Out
TTITLE10=Gym Class Heroes - Stereo Hearts
TTITLE11=JLS - Take A Chance On Me
TTITLE12=Katy Perry - The One That Got Away
TTITLE13=Snow Patrol - This Isn't Everything You Are
TTITLE14=Wanted The - Warzone
TTITLE15=Rihanna - We Found Love
TTITLE16=Charlene Soraia - Wherever You Will Go
TTITLE17=Jessie J - Who Are You
TTITLE18=X Factor Finalists 2011 - Wishing On A Star
TTITLE19=Lady Gaga - You And I
EXTD=
EXTT0=
EXTT1=
EXTT2=
EXTT3=
EXTT4=
EXTT5=
EXTT6=
EXTT7=
EXTT8=
EXTT9=
EXTT10=
EXTT11=
EXTT12=
EXTT13=
EXTT14=
EXTT15=
EXTT16=
EXTT17=
EXTT18=
EXTT19=
PLAYORDER=
